#!OML:ASF Y:\EmotionMaleHayes\Project 1\Capture day 1\Session 1\Male1.ASF
:FULLY-SPECIFIED
:DEGREES
552
root -0.345988 16.4357 -12.9449 -363.205 40.047 -367.085
lowerback 4.36463 2.672 4.8355
upperback 7.79376 3.65424 1.66772
thorax 5.86869 2.09382 -0.91555
lowerneck -16.8337 -4.74999 -2.50414
upperneck 26.7388 -8.90539 10.5828
head 12.273 -2.78763 3.04303
rclavicle 2.21148e-014 -2.74323e-014
rhumerus -14.6912 25.7199 -92.7195
rradius 43.967
rwrist -6.1708
rhand -11.7997 -31.2883
rfingers 7.12502
rthumb 14.25 -60.7794
lclavicle 2.21148e-014 -2.74323e-014
lhumerus -20.2768 -4.62707 83.1208
lradius 26.6045
lwrist -2.86638
lhand -22.2461 -27.2155
lfingers 7.12502
lthumb 4.17114 2.72338
rfemur 15.1541 1.60179 31.9865
rtibia 10.8104
rfoot -25.2324 14.5095
rtoes 19.5722
lfemur -28.067 -1.64394 -4.10114
ltibia 12.5356
lfoot -4.67615 2.55762
ltoes -14.607
553
root -0.229311 16.4035 -12.8634 -362.946 39.4622 -366.942
lowerback 4.09475 2.65096 4.78758
upperback 7.84996 3.61731 1.36832
thorax 6.09757 2.08559 -1.18277
lowerneck -16.7825 -4.54108 -2.36879
upperneck 26.6088 -8.60502 10.4817
head 12.1726 -2.66347 3.02619
rclavicle 1.32937e-014 -2.88238e-015
rhumerus -14.8306 25.5751 -93.1306
rradius 43.662
rwrist -6.16629
rhand -11.9308 -30.7925
rfingers 7.12502
rthumb 14.1237 -60.2925
lclavicle 1.32937e-014 -2.88238e-015
lhumerus -20.2113 -3.45963 82.6759
lradius 26.3804
lwrist -3.44514
lhand -21.7837 -27.2028
lfingers 7.12502
lthumb 4.61761 2.72686
rfemur 15.5739 1.80592 31.7452
rtibia 10.8545
rfoot -25.4475 14.5719
rtoes 17.5687
lfemur -28.1631 -1.83099 -4.22818
ltibia 12.9718
lfoot -4.13745 2.40118
ltoes -15.1784
554
root -0.116751 16.3763 -12.7816 -362.876 38.8586 -367.053
lowerback 3.94641 2.63972 4.96289
upperback 7.87152 3.60288 1.08314
thorax 6.23799 2.09997 -1.56682
lowerneck -17.0401 -4.40309 -2.043
upperneck 26.9013 -8.43076 10.1079
head 12.291 -2.58174 2.85977
rclavicle -3.98191e-014 2.46741e-014
rhumerus -15.0061 25.2642 -93.5819
rradius 43.2895
rwrist -6.14123
rhand -11.8693 -30.2874
rfingers 7.12502
rthumb 14.183 -59.7832
lclavicle -3.98191e-014 2.46741e-014
lhumerus -20.2444 -2.45593 82.2074
lradius 26.2791
lwrist -3.43804
lhand -21.0463 -27.184
lfingers 7.12502
lthumb 5.32963 2.72899
rfemur 15.9278 2.2909 31.8742
rtibia 11.0902
rfoot -25.4532 14.6172
rtoes 17.5037
lfemur -28.2547 -1.97733 -4.09261
ltibia 13.6612
lfoot -3.10214 2.18345
ltoes -13.996
555
root -0.0091448 16.3495 -12.6993 -362.891 38.2811 -367.318
lowerback 3.84005 2.66568 5.04204
upperback 7.88876 3.63505 0.943507
thorax 6.33582 2.1266 -1.74818
lowerneck -17.1908 -4.35491 -1.75936
upperneck 27.0674 -8.35509 9.72231
head 12.347 -2.55876 2.67758
rclavicle -3.34704e-014 -1.30204e-014
rhumerus -15.3622 24.7994 -93.8981
rradius 43.0909
rwrist -5.9031
rhand -11.7954 -29.9526
rfingers 7.12502
rthumb 14.2541 -59.4434
lclavicle -3.34704e-014 -1.30204e-014
lhumerus -20.2222 -1.71509 81.8902
lradius 26.2557
lwrist -2.77264
lhand -19.9545 -26.8813
lfingers 7.12502
lthumb 6.38374 3.00252
rfemur 16.2975 2.9137 32.2595
rtibia 11.2668
rfoot -25.5572 14.5365
rtoes 17.9956
lfemur -28.3778 -2.30024 -3.65443
ltibia 14.5029
lfoot -1.78744 2.01475
ltoes -8.60642
556
root 0.102758 16.3217 -12.6161 -362.714 37.7596 -367.368
lowerback 3.61591 2.70752 4.94373
upperback 7.91177 3.6823 0.785904
thorax 6.49598 2.15165 -1.84308
lowerneck -16.9265 -4.31884 -1.65536
upperneck 26.9222 -8.25089 9.50298
head 12.2085 -2.54634 2.59219
rclavicle 2.08724e-015 -8.15017e-015
rhumerus -15.7638 24.3023 -94.1461
rradius 42.8987
rwrist -5.66597
rhand -11.795 -29.7787
rfingers 7.12502
rthumb 14.2545 -59.2695
lclavicle 2.08724e-015 -8.15017e-015
lhumerus -20.0746 -0.93797 81.6534
lradius 26.0612
lwrist -2.41966
lhand -19.2346 -26.4152
lfingers 7.12502
lthumb 7.07866 3.44644
rfemur 16.6215 3.43852 32.3966
rtibia 11.4842
rfoot -25.9513 14.2633
rtoes 16.7964
lfemur -28.6891 -2.60478 -3.417
ltibia 15.6882
lfoot -0.0656396 1.98364
ltoes -2.50626
557
root 0.219347 16.3006 -12.5326 -362.367 37.2685 -367.141
lowerback 3.35634 2.6993 4.65022
upperback 7.91445 3.66387 0.601735
thorax 6.63621 2.13197 -1.85903
lowerneck -17.3974 -4.27591 -1.4098
upperneck 27.4321 -8.1614 8.95045
head 12.4601 -2.51947 2.35859
rclavicle 3.3197e-014 -1.90833e-014
rhumerus -16.2029 24.0323 -94.3419
rradius 42.4809
rwrist -5.454
rhand -11.7792 -29.4891
rfingers 7.12502
rthumb 14.2697 -58.9788
lclavicle 3.3197e-014 -1.90833e-014
lhumerus -20.0092 0.208701 81.468
lradius 25.6444
lwrist -2.51173
lhand -19.0711 -26.1356
lfingers 7.12502
lthumb 7.23655 3.72068
rfemur 16.921 3.95678 32.2301
rtibia 11.6697
rfoot -26.0491 14.1387
rtoes 16.1523
lfemur -29.1043 -3.01167 -3.474
ltibia 17.0582
lfoot 1.54462 2.27755
ltoes 1.56793
558
root 0.329408 16.2884 -12.4502 -362.181 36.6601 -367.117
lowerback 3.26245 2.70922 4.45486
upperback 7.88318 3.677 0.481402
thorax 6.65054 2.12911 -1.87225
lowerneck -16.8725 -4.12021 -1.58468
upperneck 27.2216 -7.84476 8.92121
head 12.2493 -2.42722 2.43065
rclavicle 8.94531e-016 -5.1684e-015
rhumerus -16.7011 23.8117 -94.5503
rradius 41.9523
rwrist -5.10204
rhand -11.7959 -29.4857
rfingers 7.12502
rthumb 14.2537 -58.9765
lclavicle 8.94531e-016 -5.1684e-015
lhumerus -20.0236 1.62498 81.2972
lradius 25.0741
lwrist -3.0385
lhand -19.1635 -26.1471
lfingers 7.12502
lthumb 7.14735 3.71217
rfemur 17.1533 4.79199 32.4101
rtibia 11.9704
rfoot -25.853 14.0079
rtoes 16.9901
lfemur -29.5123 -3.32418 -3.2985
ltibia 18.5458
lfoot 1.87178 2.51201
ltoes 1.68485
